<svg xmlns="http://www.w3.org/2000/svg" viewBox="0 0 1240 420" role="img" aria-labelledby="title desc">
  <title id="title">AGP Sports Intelligence Platform</title>
  <desc id="desc">Logomarca oficial aprovada do AGP.</desc>
  <defs>
    <linearGradient id="agpText" x1="0" x2="1" y1="0" y2="1">
      <stop offset="0" stop-color="#123a8f"/>
      <stop offset="1" stop-color="#061533"/>
    </linearGradient>
    <linearGradient id="agpAccent" x1="0" x2="1">
      <stop offset="0" stop-color="#0ea5e9"/>
      <stop offset="1" stop-color="#38bdf8"/>
    </linearGradient>
    <filter id="glow" x="-30%" y="-30%" width="160%" height="160%">
      <feGaussianBlur stdDeviation="6" result="blur"/>
      <feMerge><feMergeNode in="blur"/><feMergeNode in="SourceGraphic"/></feMerge>
    </filter>
  </defs>

  <g transform="translate(95 55)">
    <text x="0" y="210" font-family="Arial Black, Arial, sans-serif" font-size="220" font-weight="900" letter-spacing="-18" fill="url(#agpText)">AGP</text>

    <path d="M650 202 C760 205 812 176 866 128 C915 85 949 78 983 111 C1007 135 1024 168 1044 192" fill="none" stroke="#0b2556" stroke-width="15" stroke-linecap="round"/>
    <path d="M668 215 C775 207 820 186 871 149 C915 118 952 118 990 151 C1016 174 1034 190 1056 200" fill="none" stroke="url(#agpAccent)" stroke-width="22" stroke-linecap="round"/>
    <path d="M726 221 C811 212 866 188 915 145 C957 108 995 80 1043 69" fill="none" stroke="#1e40af" stroke-width="9" stroke-linecap="round"/>

    <circle cx="900" cy="145" r="18" fill="#0ea5e9" filter="url(#glow)"/>
    <circle cx="951" cy="161" r="22" fill="#e5e7eb" stroke="#0b2556" stroke-width="5"/>
    <circle cx="1043" cy="69" r="24" fill="#0ea5e9" filter="url(#glow)"/>

    <path d="M80 188 L122 188 L106 135 Z" fill="#0ea5e9"/>

    <text x="18" y="306" font-family="Arial, sans-serif" font-size="40" font-weight="700" letter-spacing="9" fill="#e5e7eb">SPORTS INTELLIGENCE PLATFORM</text>
  </g>
</svg>
